<?xml version="1.0" encoding="utf-8"?>
<!-- Generator: Adobe Illustrator 22.1.0, SVG Export Plug-In . SVG Version: 6.00 Build 0)  -->
<svg version="1.1" id="Layer_1" xmlns="http://www.w3.org/2000/svg" xmlns:xlink="http://www.w3.org/1999/xlink" x="0px" y="0px"
	 viewBox="0 0 403.6 406.4" style="enable-background:new 0 0 403.6 406.4;" xml:space="preserve">
<style type="text/css">
	.st0{fill:#FFFFFF;}
	.st1{fill:url(#SVGID_1_);}
	.st2{fill:#3E3E3D;}
	.st3{fill:url(#SVGID_2_);}
	.st4{enable-background:new    ;}
	.st5{fill:url(#SVGID_3_);}
	.st6{fill:#343433;}
</style>
<title>Asset 4</title>
<g>
	<path class="st0" d="M59.4,324.2c-21.4,2.7-33.8,5.5-41.4,7.5c-0.8,0.2-1.6,0.3-2.3,0.3c-4.8,0-8.7-3.6-8.8-8L0,239.1v-0.2
		c0.1-4,3-7.3,6.9-8c5.7-1.2,17.8-3.5,36.1-6v-93.6l86-49.7c-0.3-2.8-0.5-5.6-0.5-8.4c-0.5-40.5,32-73.7,72.4-74.1
		s73.7,32,74.1,72.4c0,0.6,0,1.1,0,1.7c0,2.8-0.2,5.6-0.5,8.4l86,49.7V225c18.4,2.5,30.4,4.8,36.1,6c3.9,0.7,6.8,4,6.9,8v0.2
		l-6.8,84.8c-0.1,2.3-1.1,4.4-2.9,5.8c-1.7,1.4-3.8,2.2-6,2.1l0,0c-0.8,0-1.6-0.1-2.3-0.3c-7.6-1.9-20-4.8-41.4-7.5l-142.4,82.2
		L59.4,324.2z"/>
	
		<linearGradient id="SVGID_1_" gradientUnits="userSpaceOnUse" x1="-248.83" y1="895" x2="659.28" y2="895" gradientTransform="matrix(1 0 0 1 0 -672)">
		<stop  offset="0" style="stop-color:#FDF287"/>
		<stop  offset="0.26" style="stop-color:#BD9137"/>
		<stop  offset="0.46" style="stop-color:#C59D44"/>
		<stop  offset="0.75" style="stop-color:#FCF5AD"/>
		<stop  offset="1" style="stop-color:#C59D44"/>
	</linearGradient>
	<polygon class="st1" points="356.5,312.4 356.5,133.7 201.8,44.3 47.1,133.7 47.1,312.4 201.8,401.7 	"/>
	<polygon class="st2" points="348.4,307.6 348.4,138.4 201.8,53.8 55.2,138.4 55.2,307.6 201.8,392.3 	"/>
	
		<linearGradient id="SVGID_2_" gradientUnits="userSpaceOnUse" x1="-436.0018" y1="586.6079" x2="458.6884" y2="1098.3879" gradientTransform="matrix(1 0 0 1 0 -672)">
		<stop  offset="0" style="stop-color:#FDF287"/>
		<stop  offset="0.26" style="stop-color:#BD9137"/>
		<stop  offset="0.46" style="stop-color:#C59D44"/>
		<stop  offset="0.75" style="stop-color:#FCF5AD"/>
		<stop  offset="1" style="stop-color:#C59D44"/>
	</linearGradient>
	<path class="st3" d="M392.7,323.8c0,2.7-3,4.7-6,3.9c-16.5-4.2-62.8-14.5-184.9-14.5S33.5,323.5,17,327.7c-3,0.8-6-1.2-6-3.9
		L4.1,239c0.1-2,1.6-3.7,3.6-4c15.5-3.2,81.2-15.4,194.1-15.4s178.6,12.2,194.1,15.5c2,0.3,3.5,2,3.6,4L392.7,323.8z"/>
	<path class="st2" d="M66.8,278.1c-0.9-5.6-1.9-12.3-2.8-19.1h-0.2c-0.7,6.1-1.8,13-3,18.7l-3.4,18.9l-8.2,1L42,280.1
		c-2.2-5.3-4.6-11.7-6.4-17.7h-0.1c0.5,6.3,1.2,13.5,1.5,19.4l1.3,17.8l-9.8,1.2l-2.7-47l14-1.7l6.5,15c2.1,5.2,4.3,10.9,6,16.2h0.2
		c0.7-5.5,1.5-11.9,2.4-17.3l3.1-16.1l13.8-1.7l8.3,46.3l-10.3,1.3L66.8,278.1z"/>
	<path class="st2" d="M28.3,301.1v-0.2l-2.7-47.2L40,252l6.5,15.1c2.5,6.3,4.4,11.3,5.9,15.8c0.5-4.5,1.4-11,2.3-16.9l3.1-16.3
		l14.1-1.7l8.3,46.7L69.5,296v-0.2L66.6,278c-0.8-5-1.8-11.5-2.7-18.3c-0.7,5.6-1.7,12.1-2.9,17.9l-3.5,19l-8.5,1l-0.1-0.1L41.7,280
		c-2.2-5.4-4.5-11.4-6.1-16.6c0.2,1.9,0.3,3.8,0.5,5.7c0.4,4.3,0.7,8.7,1,12.5l1.3,18L28.3,301.1z M26,254.1l2.7,46.6l9.3-1.2
		l-1.3-17.6c-0.2-3.8-0.6-8.2-1-12.5c-0.2-2.4-0.4-4.7-0.6-6.9v-0.2l0.5-0.1v0.2c1.7,5.4,4,11.9,6.4,17.7l7.1,17.3l7.9-1l3.4-18.7
		c1.2-6.1,2.3-12.9,3-18.7v-0.2l0.6-0.1v0.2c0.9,7,1.9,13.9,2.8,19.1l2.8,17.6l9.9-1.2l-8.2-45.9l-13.4,1.6l-3.1,16
		c-1,6-1.8,12.7-2.4,17.3v0.1l-0.5,0.1v-0.2c-1.5-4.6-3.4-9.7-6-16.2l-6.4-14.9L26,254.1z"/>
	<path class="st2" d="M94.8,246.6l1.9,27c0.6,8.1,3.9,12,9.3,11.6s8.3-4.5,7.8-12.8l-1.9-27l10.6-0.7l1.8,26.3
		c1,14.5-5.8,21.9-18,22.7c-11.9,0.8-19.3-5.2-20.3-20.2l-1.8-26.1L94.8,246.6z"/>
	<path class="st2" d="M104.2,293.9c-5.1,0-9.3-1.4-12.3-4.3c-3.6-3.4-5.6-8.8-6.2-16.1L84,247.1l11-0.8v0.2l1.9,27
		c0.5,7.8,3.7,11.8,9.1,11.4c5.6-0.4,8.1-4.6,7.6-12.5l-1.9-27.2l11-0.8v0.2l1.8,26.3c1,14.1-5.3,22-18.2,22.9
		C105.6,293.9,104.9,293.9,104.2,293.9z M84.4,247.5l1.8,25.9c0.5,7.2,2.5,12.6,6,15.9c3.3,3.2,8.1,4.5,14,4.1
		c12.7-0.9,18.8-8.7,17.9-22.5l-1.8-26.1l-10.2,0.7l1.9,26.8c0.6,8.2-2.1,12.6-8,13c-5.7,0.4-9-3.7-9.5-11.8l-1.9-26.8L84.4,247.5z"
		/>
	<path class="st2" d="M134.5,280.2c3.7,1.7,7.8,2.6,11.9,2.5c4.9-0.2,7.4-2.3,7.3-5.4s-2.4-4.5-8.1-6.3c-7.9-2.4-13.1-6.6-13.4-13.4
		c-0.3-8,6.2-14.4,17.2-14.8c4.1-0.2,8.2,0.4,12.1,1.9l-2.1,8.6c-3.1-1.4-6.5-2-9.9-1.9c-4.6,0.2-6.8,2.3-6.7,4.8
		c0.1,3,2.8,4.2,8.9,6.3c8.4,2.8,12.4,6.9,12.7,13.6c0.3,7.9-5.5,14.8-18.4,15.2c-5.4,0.2-10.7-1-13.4-2.4L134.5,280.2z"/>
	<path class="st2" d="M144.9,291.6c-4.2,0.1-8.4-0.8-12.3-2.4l-0.1-0.1l1.9-9.3l0.2,0.1c3.7,1.7,7.7,2.6,11.8,2.5
		c4.5-0.2,7.2-2.1,7.1-5.1c-0.1-2.7-2.1-4.3-8-6.1c-8.8-2.7-13.3-7.3-13.5-13.6c-0.2-4,1.5-7.8,4.4-10.4c3.1-2.8,7.6-4.4,13-4.6
		c4.1-0.2,8.3,0.4,12.1,1.9l0.2,0.1l-2.1,9.1l-0.2-0.1c-3.1-1.4-6.4-2-9.8-1.9c-1.8,0-3.5,0.5-5,1.5c-1,0.7-1.5,1.9-1.5,3.1
		c0.1,2.9,2.8,4.1,8.8,6.1c8.6,2.8,12.6,7.1,12.8,13.7c0.2,4-1.4,7.9-4.3,10.6c-3.3,3-8.2,4.7-14.3,4.9
		C145.7,291.6,145.3,291.6,144.9,291.6z M132.9,288.9c4.2,1.7,8.7,2.5,13.2,2.3c6-0.2,10.8-1.9,14-4.8c2.9-2.6,4.4-6.4,4.2-10.2
		c-0.2-6.5-4.1-10.6-12.6-13.4c-6.2-2.1-9-3.4-9.1-6.5c0-1.3,0.6-2.6,1.6-3.4c1.5-1.1,3.4-1.6,5.2-1.6c3.3-0.1,6.7,0.5,9.8,1.8
		l2-8.2c-3.8-1.4-7.8-2.1-11.9-1.9c-5.3,0.2-9.7,1.7-12.8,4.5c-2.9,2.5-4.5,6.2-4.3,10.1c0.2,6.2,4.6,10.5,13.2,13.2
		c6,1.9,8.1,3.6,8.2,6.5c0.1,3.3-2.7,5.4-7.5,5.6c-4,0.1-8-0.8-11.7-2.4L132.9,288.9z"/>
	<path class="st2" d="M180.5,251.8l-12.6,0.1l-0.1-8.9l36.1-0.4l0.1,8.9l-12.8,0.1l0.4,38.1l-10.7,0.1L180.5,251.8z"/>
	<path class="st2" d="M180.7,290l-0.4-38l-12.6,0.1l-0.1-9.3l36.5-0.4l0.1,9.3l-12.8,0.1l0.4,38L180.7,290z M180.7,251.5l0.4,38.1
		l10.3-0.1l-0.4-38.1l12.8-0.1l-0.1-8.5l-35.7,0.4l0.1,8.5L180.7,251.5z"/>
	<path class="st2" d="M221.6,268v7l-18.3-0.1l0.1-7L221.6,268z"/>
	<path class="st2" d="M221.7,275.2l-18.7-0.1l0.1-7.4l18.7,0.1L221.7,275.2z M203.5,274.7l17.9,0.1l0.1-6.6l-17.9-0.1L203.5,274.7z"
		/>
	<path class="st2" d="M229.1,243.5c4.8-0.6,9.6-0.8,14.4-0.6c6.6,0.2,11.2,1.6,14.2,4.2c3.2,2.8,4.9,6.8,4.7,11
		c-0.1,4.6-1.8,8.5-4.6,11c-3.7,3.3-9.1,4.7-15.4,4.5c-1.2,0-2.4-0.1-3.6-0.3l-0.5,16.8l-10.5-0.3L229.1,243.5z M239.1,265.1
		c1.2,0.3,2.3,0.4,3.5,0.4c5.6,0.1,9.2-2.6,9.3-7.4c0.1-4.3-2.8-7-8.1-7.1c-1.5-0.1-3,0-4.4,0.3L239.1,265.1z"/>
	<path class="st2" d="M238.6,290.3l-10.9-0.3v-0.2l1.3-46.5h0.2c4.8-0.6,9.6-0.8,14.4-0.6c6.5,0.2,11.2,1.6,14.4,4.2
		c3.2,2.8,5,6.9,4.8,11.2c0,4.2-1.7,8.2-4.7,11.1c-3.6,3.2-8.9,4.8-15.5,4.6c-1.1,0-2.3-0.1-3.4-0.3L238.6,290.3z M228.1,289.6
		l10.1,0.3l0.5-16.8h0.2c1.2,0.2,2.4,0.3,3.6,0.3c2.9,0.1,5.8-0.2,8.6-1c2.5-0.6,4.7-1.9,6.7-3.5c3-2.8,4.6-6.8,4.6-10.9
		c0.2-4.1-1.5-8.1-4.6-10.9c-3.1-2.6-7.7-3.9-14.1-4.1c-4.7-0.2-9.5,0-14.2,0.6L228.1,289.6z M243.1,265.7h-0.4
		c-1.2,0-2.4-0.1-3.6-0.4h-0.2l0.4-14.2h0.1c1.5-0.3,3-0.4,4.4-0.3c2.2-0.1,4.4,0.7,6.2,2.1c1.5,1.4,2.2,3.3,2.1,5.3
		c0,2.2-1,4.3-2.7,5.7C247.6,265.2,245.4,265.8,243.1,265.7L243.1,265.7z M239.3,264.9c1.1,0.2,2.2,0.3,3.4,0.3
		c2.3,0.2,4.7-0.5,6.6-1.8c1.6-1.3,2.6-3.3,2.5-5.4c0.2-1.9-0.6-3.7-1.9-5c-1.7-1.3-3.8-2-5.9-2c-1.4-0.1-2.8,0-4.2,0.3L239.3,264.9
		z"/>
	<path class="st2" d="M270.6,244.2l10.6,0.6l-2.1,38l18.6,1l-0.5,8.9l-29.3-1.7L270.6,244.2z"/>
	<path class="st2" d="M297.5,292.9l-29.7-1.7l2.7-47.3l11,0.6l-2.1,38l18.6,1L297.5,292.9z M268.2,290.9l28.9,1.6l0.5-8.5l-18.6-1
		l2.1-38l-10.2-0.6L268.2,290.9z"/>
	<path class="st2" d="M315.6,282.1l-4.4,11.7l-11-1l18.6-45.5l13.9,1.3l10.2,48.1l-11.4-1l-2.4-12.4L315.6,282.1z M328.2,275.3
		l-2-10.2c-0.6-2.9-1.1-6.4-1.5-9.2h-0.1c-1,2.7-2,6.2-3,8.8l-3.7,9.7L328.2,275.3z"/>
	<path class="st2" d="M343.1,297l-11.8-1.1l-2.5-12.3l-13.1-1.2l-4.4,11.6l-11.4-1l18.8-45.9l14.2,1.3v0.1L343.1,297z M331.6,295.5
		l11,1l-10.1-47.7l-13.6-1.2l-18.5,45.1l10.5,1l4.4-11.7l13.7,1.3L331.6,295.5z M328.4,275.5l-10.9-1l3.8-9.9
		c0.6-1.6,1.2-3.5,1.8-5.3c0.4-1.3,0.8-2.4,1.2-3.5v-0.1h0.5l0.2,1.6c0.4,2.5,0.8,5.4,1.3,7.8L328.4,275.5z M318.1,274.2l9.8,0.9
		l-1.9-9.9c-0.5-2.4-0.9-5.3-1.3-7.8l-0.1-0.9c-0.3,1-0.7,2-1,3c-0.6,1.8-1.2,3.7-1.8,5.3L318.1,274.2z"/>
	<path class="st2" d="M352.8,298.1l2.6-19.1l-11-29.5l12,1.6l3.3,11.8c1,3.6,1.6,6.2,2.4,9.4h0.1c1.4-2.8,2.9-5.3,4.7-8.4l6.2-10.6
		l11.8,1.6l-19,25.1l-2.6,19.4L352.8,298.1z"/>
	<path class="st2" d="M363.5,299.8l-10.9-1.5l2.6-19.2l-11.1-29.8l12.5,1.7l3.3,12c0.9,3.4,1.5,5.8,2.3,9.1c1.4-2.7,2.9-5.2,4.6-8.1
		l6.3-10.7l12.3,1.7l-19.2,25.3L363.5,299.8z M353,298l10.1,1.4l2.6-19.3l18.8-24.9l-11.3-1.5l-6.1,10.4c-1.8,3.1-3.3,5.6-4.7,8.4
		l-0.1,0.1l-0.4-0.1v-0.1c-0.8-3.4-1.4-5.9-2.4-9.4l-3.2-11.7l-11.5-1.6l10.9,29.2l0,0L353,298z"/>
	<g class="st4">
		<path class="st0" d="M81.7,176c0-3.2-0.1-6-0.2-8.3h6.8l0.4,3.5h0.2c1.1-1.6,3.4-4.1,7.9-4.1c3.4,0,6,1.7,7.1,4.4h0.1
			c1-1.3,2.1-2.4,3.4-3.1c1.4-0.9,3-1.3,4.9-1.3c5,0,8.8,3.5,8.8,11.3v15.3h-7.9v-14.1c0-3.8-1.2-6-3.8-6c-1.9,0-3.2,1.3-3.7,2.8
			c-0.2,0.6-0.3,1.4-0.3,2.1v15.2h-7.9v-14.6c0-3.3-1.2-5.5-3.7-5.5c-2.1,0-3.3,1.6-3.8,2.9c-0.3,0.6-0.3,1.4-0.3,2v15.2h-7.9
			L81.7,176L81.7,176z"/>
	</g>
	<g class="st4">
		<path class="st0" d="M133.6,183.3c0.3,3.4,3.6,4.9,7.3,4.9c2.8,0,5-0.4,7.2-1.1l1.1,5.5c-2.7,1.1-5.9,1.6-9.4,1.6
			c-8.8,0-13.9-5.1-13.9-13.2c0-6.6,4.1-13.9,13.1-13.9c8.4,0,11.6,6.5,11.6,13c0,1.4-0.2,2.6-0.3,3.2H133.6z M143.1,177.8
			c0-2-0.9-5.3-4.6-5.3c-3.4,0-4.8,3.1-5,5.3H143.1z"/>
	</g>
	<g class="st4">
		<path class="st0" d="M165.6,160.3v7.4h5.8v6h-5.8v9.4c0,3.1,0.7,4.6,3.2,4.6c1,0,1.8-0.1,2.4-0.2l0.1,6.1c-1.1,0.4-3,0.7-5.3,0.7
			c-2.6,0-4.8-0.9-6.1-2.2c-1.5-1.5-2.2-4-2.2-7.7v-10.6h-3.5v-6h3.5v-5.6L165.6,160.3z"/>
	</g>
	<g class="st4">
		<path class="st0" d="M193,193.8l-0.5-2.6h-0.2c-1.7,2.1-4.4,3.2-7.4,3.2c-5.3,0-8.4-3.8-8.4-8c0-6.8,6.1-10,15.3-9.9V176
			c0-1.4-0.7-3.3-4.7-3.3c-2.7,0-5.5,0.9-7.2,2l-1.5-5.2c1.8-1,5.4-2.3,10.1-2.3c8.7,0,11.4,5.1,11.4,11.2v9c0,2.5,0.1,4.9,0.4,6.3
			H193V193.8z M192,181.5c-4.3-0.1-7.6,1-7.6,4.1c0,2.1,1.4,3.1,3.2,3.1c2,0,3.7-1.3,4.2-3c0.1-0.4,0.2-0.9,0.2-1.4L192,181.5
			L192,181.5z"/>
	</g>
	<path class="st0" d="M224.7,193.1c-1.4,0.6-4.1,1.2-7.2,1.2c-8.4,0-13.8-5.1-13.8-13.3c0-7.6,5.2-13.8,14.9-13.8
		c2.1,0,4.5,0.4,6.2,1l-1.3,6c-1-0.4-2.4-0.8-4.5-0.8c-4.3,0-7,3-7,7.3c0,4.8,3.2,7.3,7.1,7.3c1.9,0,3.4-0.3,4.6-0.8L224.7,193.1z"
		/>
	<path class="st0" d="M230.3,176.3c0-3.8-0.1-6.3-0.2-8.6h7l0.3,4.8h0.2c1.3-3.8,4.5-5.4,7-5.4c0.7,0,1.1,0,1.7,0.1v7.6
		c-0.6-0.1-1.3-0.2-2.2-0.2c-3,0-5,1.6-5.5,4.1c-0.1,0.5-0.2,1.2-0.2,1.8v13.2h-8.1V176.3z"/>
	<path class="st0" d="M259.9,160.5c0,2.2-1.7,4-4.4,4c-2.6,0-4.3-1.8-4.2-4c-0.1-2.3,1.6-4.1,4.3-4.1
		C258.3,156.4,259.8,158.2,259.9,160.5z M251.5,193.8v-26h8.1v26H251.5z"/>
	<path class="st0" d="M276.2,160.3v7.4h5.8v6h-5.8v9.4c0,3.1,0.7,4.6,3.2,4.6c1,0,1.8-0.1,2.4-0.2l0.1,6.1c-1.1,0.4-3,0.7-5.3,0.7
		c-2.6,0-4.8-0.9-6.1-2.2c-1.5-1.5-2.2-4-2.2-7.7v-10.6h-3.5v-6h3.5v-5.6L276.2,160.3z"/>
	<path class="st0" d="M296.1,160.5c0,2.2-1.7,4-4.4,4c-2.6,0-4.3-1.8-4.2-4c-0.1-2.3,1.6-4.1,4.3-4.1
		C294.4,156.4,296,158.2,296.1,160.5z M287.7,193.8v-26h8.1v26H287.7z"/>
	<path class="st0" d="M322.9,193.1c-1.4,0.6-4.1,1.2-7.2,1.2c-8.4,0-13.8-5.1-13.8-13.3c0-7.6,5.2-13.8,14.9-13.8
		c2.1,0,4.5,0.4,6.2,1l-1.3,6c-1-0.4-2.4-0.8-4.5-0.8c-4.3,0-7,3-7,7.3c0,4.8,3.2,7.3,7.1,7.3c1.9,0,3.4-0.3,4.6-0.8L322.9,193.1z"
		/>
	
		<linearGradient id="SVGID_3_" gradientUnits="userSpaceOnUse" x1="132.6" y1="745.3" x2="271" y2="745.3" gradientTransform="matrix(1 0 0 1 0 -672)">
		<stop  offset="0" style="stop-color:#FDF287"/>
		<stop  offset="0.26" style="stop-color:#BD9137"/>
		<stop  offset="0.46" style="stop-color:#C59D44"/>
		<stop  offset="0.75" style="stop-color:#FCF5AD"/>
		<stop  offset="1" style="stop-color:#C59D44"/>
	</linearGradient>
	<path class="st5" d="M271,73.3c0,38.2-31,69.2-69.2,69.2s-69.2-31-69.2-69.2s31-69.2,69.2-69.2l0,0C240,4.1,271,35.1,271,73.3z"/>
	<path class="st6" d="M257.5,73.3c0,30.8-25,55.7-55.7,55.7s-55.7-25-55.7-55.7s25-55.7,55.7-55.7C232.6,17.5,257.5,42.5,257.5,73.3
		L257.5,73.3z"/>
	<path class="st0" d="M168.7,90.5c-4.4-4.4-8.3-8-11.6-11l9.3-9.3l5.3,4.4l0.2-0.2c-1.3-6,0.6-12.2,5.1-16.4
		c4.6-4.6,10.6-5.8,15.8-3.6l0.1-0.2c-0.5-3-0.4-6.1,0.3-9c0.9-3.2,2.6-6.1,5-8.5c6.8-6.8,16.7-7.1,27.3,3.4l21,20.9l-10.7,10.7
		l-19.2-19.2c-5.1-5.1-9.8-6.5-13.3-2.9c-2.6,2.6-2.6,6.1-1.3,9c0.7,1.1,1.5,2.2,2.4,3.1L225,82.5l-10.7,10.7l-19.9-19.8
		c-4.4-4.4-9-5.9-12.6-2.3c-2.8,2.8-2.3,6.7-1.2,9c0.6,1.2,1.4,2.4,2.4,3.3l20.6,20.6l-10.7,10.7L168.7,90.5z"/>
</g>
</svg>
